<svg xmlns="http://www.w3.org/2000/svg" width="40" height="40" viewBox="0 0 40 40">
    <g fill="none" fill-rule="evenodd">
        <rect width="40" height="40" rx="10"/>
        <path fill="white" d="M21.003 23.738c1.012.839 1.629 1.952 1.629 3.174 0 2.616-2.828 4.55-6.316 4.55S10 29.529 10 26.913c0-1.221.616-2.334 1.628-3.174.91 1.24 2.668 2.08 4.688 2.08 2.02 0 3.778-.84 4.687-2.08zm-4.687-7.774a4.21 4.21 0 1 1 0 8.42 4.21 4.21 0 0 1 0-8.42zm12.055.81c1.012.84 1.629 1.953 1.629 3.174 0 2.617-2.828 3.551-6.316 3.551-.674 0-1.323-.035-1.932-.11a6.335 6.335 0 0 0 .718-4.64c.39.07.796.106 1.214.106 2.02 0 3.779-.84 4.687-2.08zM23.684 9a4.21 4.21 0 1 1 0 8.421 4.21 4.21 0 0 1 0-8.421z"/>
    </g>
</svg>
