<svg xmlns="http://www.w3.org/2000/svg" width="31" height="39" viewBox="0 0 31 39">
    <path fill="#7D8CFA" fill-rule="nonzero" d="M24.442 0a3.5 3.5 0 0 1 3.5 3.5v11.419a75.106 75.106 0 0 1 2.05 1.668 2.5 2.5 0 0 1 0 3.827l-.41.343c-.558.463-1.105.904-1.641 1.324V35.5a3.5 3.5 0 0 1-3.5 3.5h-18a3.5 3.5 0 0 1-3.5-3.5l.002-13.418a75.102 75.102 0 0 1-2.053-1.67 2.5 2.5 0 0 1 .001-3.826l.41-.343a73.39 73.39 0 0 1 1.642-1.325L2.942 3.5a3.5 3.5 0 0 1 3.5-3.5h18zm2.499 33h-23v2.5a2.5 2.5 0 0 0 2.5 2.5h18a2.5 2.5 0 0 0 2.5-2.5V33zm-9 2a.5.5 0 1 1 0 1h-5a.5.5 0 1 1 0-1zm9-12.152l-.02.016a57.31 57.31 0 0 1-.326.242l-.078.057-.026.02-.224.164.25-.184c-.452.334-.896.65-1.332.95a42.39 42.39 0 0 1-1.889 1.226l-.165.1a33.404 33.404 0 0 1-1.35.766 24.57 24.57 0 0 1-1.433.704 19.705 19.705 0 0 1-1.359.547 20.455 20.455 0 0 1-.608.202 13.198 13.198 0 0 1-1.166.297 9.74 9.74 0 0 1-1.526.184l-.247.004c-.088 0-.177-.002-.266-.005l.266.005a7.821 7.821 0 0 1-.9-.05 9.487 9.487 0 0 1-.812-.126l-.103-.02a11.102 11.102 0 0 1-.527-.122 13.18 13.18 0 0 1-1.135-.344l-.052-.018a14.198 14.198 0 0 1-.227-.082l-.09-.034a14.095 14.095 0 0 1-.694-.277 11.958 11.958 0 0 1-.35-.153 12.524 12.524 0 0 1-.231-.105c-.17-.079-.343-.161-.517-.247l-.045-.022a25.35 25.35 0 0 1-1.516-.815 33.745 33.745 0 0 1-1.869-1.159 42.95 42.95 0 0 1-1.556-1.076l-.121-.088c-.229-.165-.46-.336-.694-.51l-.06-.047L3.94 32h23v-9.152zM15.441 10a8.5 8.5 0 1 0 0 17 8.5 8.5 0 0 0 0-17zm-7.42 2.567l-.209.13-.149.092.15-.093a37.427 37.427 0 0 0-.892.572l-.35.235a44.855 44.855 0 0 0-1.16.81 55.135 55.135 0 0 0-1.516 1.132c-.507.392-1.025.804-1.554 1.237l-.807.67a1.5 1.5 0 0 0 0 2.296 63.776 63.776 0 0 0 4.325 3.358c.226.16.45.314.671.464l.077.052-.077-.052c.131.089.261.176.39.261l-.313-.21c.135.092.27.182.403.27l-.09-.06.35.229-.26-.17c.126.083.252.165.376.244l-.115-.074.388.248-.273-.174.353.224-.08-.05c.122.077.244.152.364.226A9.456 9.456 0 0 1 5.942 18.5a9.46 9.46 0 0 1 2.08-5.933zm14.84 0l.127.161a9.459 9.459 0 0 1 1.954 5.772 9.46 9.46 0 0 1-2.08 5.933l.216-.134c.05-.03.099-.062.149-.093l-.149.093.297-.187-.148.094c.242-.152.487-.31.735-.474l.35-.235c.38-.256.768-.527 1.162-.81l.071-.052-.071.051c.406-.293.82-.6 1.243-.922l.668-.518c.38-.298.765-.607 1.157-.928l.807-.67a1.5 1.5 0 0 0 0-2.296 70.88 70.88 0 0 0-2.7-2.167l.068.051a56.342 56.342 0 0 0-1.472-1.086 45.698 45.698 0 0 0-.925-.643l-.08-.052.08.052a41.958 41.958 0 0 0-.41-.272l-.072-.048.073.048-.239-.157.166.109a38.977 38.977 0 0 0-.393-.255l.227.146c-.145-.094-.29-.186-.433-.276l.206.13a36.85 36.85 0 0 0-.3-.19l.094.06c-.127-.08-.253-.159-.379-.236zM15.44 13a5.5 5.5 0 0 1 5.36 6.742l-.422 1.825-.544-1.793a2.5 2.5 0 1 0-3.12 3.119l1.785.541-1.817.424A5.5 5.5 0 1 1 15.441 13zm0 1a4.5 4.5 0 0 0-.475 8.975 3.5 3.5 0 0 1 4.799-5.093l.152.143-.027-.21A4.501 4.501 0 0 0 15.442 14zm11.5-7.5h-23l.001 7.652.039-.03a55.846 55.846 0 0 1 1.9-1.36 37.766 37.766 0 0 1 1.294-.847l.056-.035a34.113 34.113 0 0 1 1.776-1.034 24.843 24.843 0 0 1 1.528-.755 18.96 18.96 0 0 1 1.506-.599 12.625 12.625 0 0 1 .455-.147l.01-.003a13.042 13.042 0 0 1 1.164-.297 9.713 9.713 0 0 1 1.506-.183 7.747 7.747 0 0 1 .531 0l-.265-.005a7.821 7.821 0 0 1 .9.05 9.485 9.485 0 0 1 1.011.167 9.523 9.523 0 0 1 .431.101 13.727 13.727 0 0 1 1.134.344l.052.018c.075.026.151.054.227.082l.09.034a14.481 14.481 0 0 1 .685.274 12.68 12.68 0 0 1 .462.202l.12.055a22.159 22.159 0 0 1 1.322.662 29.083 29.083 0 0 1 1.509.869 30.663 30.663 0 0 1 .72.452c.632.407 1.283.852 1.952 1.334l.1.072a42.345 42.345 0 0 1 .783.578l.001.001V6.5zm-2.5-5.5h-18a2.5 2.5 0 0 0-2.5 2.5v2h23v-2a2.5 2.5 0 0 0-2.5-2.5zm-8 2a.5.5 0 1 1 0 1h-5a.5.5 0 1 1 0-1zm3.5 0a.5.5 0 1 1 0 1h-1a.5.5 0 1 1 0-1z"/>
</svg>
