<svg xmlns="http://www.w3.org/2000/svg" width="24" height="20" viewBox="0 0 24 20">
    <path fill="#A1A9C3" fill-rule="nonzero" d="M8.785.8A1 1 0 0 1 10.2 2.215L3.414 8.999 22.636 9a1 1 0 0 1 .993.883l.007.117a1 1 0 0 1-1 1H3.414l6.786 6.785a1 1 0 0 1 .083 1.32l-.083.095a1 1 0 0 1-1.415 0L.293 10.707l-.073-.082a1.023 1.023 0 0 1-.185-.363A.933.933 0 0 1 0 10l.004.09A1.007 1.007 0 0 1 0 10.02V10a1.02 1.02 0 0 1 .127-.488.848.848 0 0 1 .06-.094.996.996 0 0 1 .106-.125l-.076.085c.023-.03.049-.058.076-.085z"/>
</svg>
