<svg xmlns="http://www.w3.org/2000/svg" width="38" height="36" viewBox="0 0 38 36">
    <path fill="#7D8CFA" fill-rule="nonzero" d="M33 10.134a.5.5 0 0 1 .66-.473c2.428.817 3.735 2.36 3.834 4.565l.006-.01V33.2l-.337.352a6.64 6.64 0 0 1-4.695 1.947H5.532a6.64 6.64 0 0 1-4.695-1.947L.5 33.2V14.216l.006.01c.1-2.205 1.407-3.748 3.835-4.565a.5.5 0 0 1 .659.473v8.209c.433.103.88.157 1.336.157h25.328c.456 0 .904-.054 1.337-.158zM29.5 19.5h-21v15h21v-15zM1.498 17.475L1.5 32.8l.051.053a5.635 5.635 0 0 0 3.98 1.647H7.5v-15H6.336a6.74 6.74 0 0 1-2.369-.43l-.115-.046c-1.009-.365-1.796-.884-2.354-1.549zm35.004 0c-.558.665-1.345 1.184-2.354 1.55l-.115.046a6.74 6.74 0 0 1-2.369.429H30.5v15h1.968a5.635 5.635 0 0 0 3.98-1.647l.052-.053zM19 21.5a5.5 5.5 0 1 1 0 11 5.5 5.5 0 0 1 0-11zm0 1a4.5 4.5 0 1 0 0 9 4.5 4.5 0 0 0 0-9zm-1.235 1.576l4 2.5a.5.5 0 0 1 0 .848l-4 2.5A.5.5 0 0 1 17 29.5v-5a.5.5 0 0 1 .765-.424zM18 25.402v3.196L20.557 27 18 25.402zM4 10.863l-.215.1C2.24 11.719 1.5 12.882 1.5 14.5c0 .874.216 1.604.658 2.198A5.734 5.734 0 0 0 4 18.004v-7.14zm30 0v7.14a5.747 5.747 0 0 0 1.842-1.305c.442-.594.658-1.324.658-2.198 0-1.619-.741-2.782-2.285-3.536l-.215-.1zM19 .5a6.444 6.444 0 0 1 1.165.104c2.27.384 5.207 1.834 8.836 4.338A2.5 2.5 0 0 1 29 9.06l-.406.277c-3.43 2.325-6.224 3.68-8.407 4.056a6.553 6.553 0 0 1-2.352.004c-2.27-.384-5.207-1.834-8.836-4.338A2.5 2.5 0 0 1 9 4.94l.406-.277c3.43-2.325 6.224-3.68 8.407-4.056A6.553 6.553 0 0 1 19 .5zm0 1a5.501 5.501 0 0 0-.902 10.926c.241.037.471.06.691.07L19 12.5a5.501 5.501 0 0 0 .902-10.926 6.292 6.292 0 0 0-.691-.07L19 1.5zm-5.278 1.705l-.124.066a40.737 40.737 0 0 0-3.629 2.22l-.402.274a1.5 1.5 0 0 0 0 2.47l.787.533a38.924 38.924 0 0 0 3.37 2.028A6.463 6.463 0 0 1 12.5 7a6.47 6.47 0 0 1 1.222-3.795zm10.554-.001l.02.028A6.47 6.47 0 0 1 25.5 7a6.47 6.47 0 0 1-1.222 3.795c1.14-.601 2.392-1.363 3.753-2.285l.402-.275a1.5 1.5 0 0 0 0-2.47l-.787-.533a38.924 38.924 0 0 0-3.37-2.028zM19 3.5a3.501 3.501 0 0 1 3.378 2.58l.293 1.077-1-.499a1.5 1.5 0 0 0-1.343 2.684l.996.499-1.033.412A3.5 3.5 0 1 1 19 3.5zm0 1a2.5 2.5 0 0 0-.165 4.995L19 9.5l-.113-.163A2.495 2.495 0 0 1 18.5 8c0-1.485.833-2.318 2.5-2.5-.577-.667-1.243-1-2-1z"/>
</svg>
