<svg xmlns="http://www.w3.org/2000/svg" width="41" height="39" viewBox="0 0 41 39">
    <path fill="#7D8CFA" fill-rule="nonzero" d="M21.713 38a.5.5 0 1 1 0 1H19.5a.5.5 0 1 1 0-1zm11 0a.5.5 0 1 1 0 1H30.5a.5.5 0 1 1 0-1zm-22 0a.5.5 0 1 1 0 1H8.5a.5.5 0 1 1 0-1zM.5 0a.5.5 0 0 1 .5.5v19.499l2.958-1.447a8.715 8.715 0 0 1 7.206-.21A30.78 30.78 0 0 0 14.2 15.44l.58-.635a7.6 7.6 0 0 1 10.565-.64l-.164-.136a15.228 15.228 0 0 1 13.702-4.468.5.5 0 0 1-.177.985 14.228 14.228 0 0 0-12.739 4.108 9.481 9.481 0 0 0 10.092.653l2.497-1.357a.5.5 0 1 1 .477.879l-2.496 1.356a10.487 10.487 0 0 1-11.243-.782l-.012.013-.22.27-.817 1.024c.466.454.755 1.088.755 1.79V35h2V23.5a2.5 2.5 0 0 1 2.5-2.5h4a2.5 2.5 0 0 1 2.5 2.5V35h4.5a.5.5 0 0 1 .492.41l.008.09a.5.5 0 0 1-.5.5h-36A4.5 4.5 0 0 1 0 31.5V.5A.5.5 0 0 1 .5 0zm10.813 19.515l-.137.111a32.262 32.262 0 0 1-8.933 5.017L1 25.099V31.5a3.5 3.5 0 0 0 3.308 3.495L4.5 35H5v-7.5A2.5 2.5 0 0 1 7.5 25h4a2.5 2.5 0 0 1 2.5 2.5V35h2V22.234a5.702 5.702 0 0 1-2.73-1.3l-.19-.17-.215-.196a7.703 7.703 0 0 0-1.552-1.053zM11.5 26h-4A1.5 1.5 0 0 0 6 27.5V35h7v-7.5a1.5 1.5 0 0 0-1.5-1.5zm22-4h-4a1.5 1.5 0 0 0-1.5 1.5V35h7V23.5a1.5 1.5 0 0 0-1.5-1.5zm-9.883-4.501l-2.12 2.663A5.733 5.733 0 0 1 17 22.324L17 35h7V18.5c0-.385-.145-.736-.383-1.001zM10.262 19.07a7.713 7.713 0 0 0-5.865.38l-3.383 1.657a.51.51 0 0 1-.014.006v2.921l.898-.33a31.261 31.261 0 0 0 8.05-4.392zM22.5 17h-4a1.5 1.5 0 0 0-1.5 1.5v2.824a4.72 4.72 0 0 0 3.714-1.785l2.009-2.523A1.512 1.512 0 0 0 22.5 17zm1.993-2.241a6.6 6.6 0 0 0-8.975.72l-.58.635a32.26 32.26 0 0 1-2.797 2.715 8.641 8.641 0 0 1 1.626 1.207l.176.158c.61.52 1.319.86 2.057 1.021V18.5a2.5 2.5 0 0 1 2.5-2.5h4c.317 0 .62.059.9.167l.88-1.104c.077-.097.155-.193.234-.288zM8 11a.5.5 0 1 1 0 1H5a.5.5 0 1 1 0-1zm0-2a.5.5 0 1 1 0 1H5a.5.5 0 1 1 0-1zm4.287-2.5a.5.5 0 1 1 0 1H5a.5.5 0 0 1 0-1zm5-2a.5.5 0 1 1 0 1H5a.5.5 0 0 1 0-1zM7.5.5a1 1 0 0 1 1 1v1a1 1 0 0 1-1 1h-2a1 1 0 0 1-1-1v-1a1 1 0 0 1 1-1h2zm0 1h-2v1h2v-1z"/>
</svg>
