<svg xmlns="http://www.w3.org/2000/svg" width="46" height="42" viewBox="0 0 46 42">
    <path fill="#7D8CFA" fill-rule="nonzero" d="M28.499 35l.09.008c1.879.33 2.913 1.198 2.911 2.636-.23 2.519-5.608 4.195-12.498 4.195-7.28 0-12.5-1.536-12.5-4.24 0-1.363.863-2.248 2.442-2.588a.5.5 0 0 1 .21.978c-1.15.247-1.652.761-1.652 1.61 0 1.758 4.469 3.137 10.778 3.235l.722.005c6.367 0 11.344-1.551 11.5-3.24 0-.82-.633-1.35-2.087-1.606a.5.5 0 0 1 .174-.985zM20.5 0a2 2 0 0 1 1.001 3.732v2.483c3.71.645 6.935 2.7 9.105 5.591.09-.1.221-.164.367-.165l7.047-.047a.5.5 0 0 1 .007 1l-6.84.045a14.436 14.436 0 0 1 1.615 3.403l.035-.01.09-.009 9.047-.046a.5.5 0 0 1 .005 1l-8.899.045c.192.78.32 1.583.381 2.406a.495.495 0 0 1 .492-.428h11a.5.5 0 0 1 0 1h-11a.5.5 0 0 1-.481-.365 14.593 14.593 0 0 1-.183 3.341H39a.5.5 0 0 1 0 1h-5.92a14.44 14.44 0 0 1-2.922 5.785 14.586 14.586 0 0 1-3.393 2.986A14.433 14.433 0 0 1 19 35c-8.008 0-14.5-6.492-14.5-14.5 0-7.156 5.183-13.1 12-14.285V3.732A2 2 0 0 1 17.5 0h3zM19 7C11.544 7 5.5 13.044 5.5 20.5S11.544 34 19 34a13.433 13.433 0 0 0 9.044-3.478c.481-.434.93-.902 1.344-1.4A13.44 13.44 0 0 0 32.5 20.5C32.5 13.044 26.456 7 19 7zm0 2c6.351 0 11.5 5.149 11.5 11.5S25.351 32 19 32 7.5 26.851 7.5 20.5 12.649 9 19 9zm.5 1.012v1.043a.5.5 0 1 1-1 0v-1.043C13.1 10.265 8.765 14.599 8.512 20H9.5a.5.5 0 1 1 0 1h-.988c.253 5.402 4.587 9.735 9.988 9.988v-1.027a.5.5 0 1 1 1 0v1.027c5.401-.253 9.735-4.587 9.988-9.987L28.406 21a.5.5 0 1 1 0-1h1.082c-.253-5.4-4.586-9.735-9.987-9.988zm4.97 4.312a.5.5 0 0 1 .706.707l-4.09 4.091A2.5 2.5 0 0 1 19.5 22.95v2.932a.5.5 0 0 1-1 0V22.95a2.5 2.5 0 1 1 1.878-4.536zM19 19a1.5 1.5 0 1 0 0 3 1.5 1.5 0 0 0 0-3zM6.46 7.132a.5.5 0 1 1 .678.736A17.449 17.449 0 0 0 1.5 20.734a.5.5 0 1 1-1 0A18.448 18.448 0 0 1 6.46 7.132zM20.5 4h-3v2h3V4zm0-3h-3a1 1 0 0 0 0 2h3a1 1 0 0 0 0-2z"/>
</svg>
