<svg xmlns="http://www.w3.org/2000/svg" width="40" height="36" viewBox="0 0 40 36">
    <path fill="#7D8CFA" fill-rule="nonzero" d="M39 11.5a.5.5 0 0 1 .492.41l.008.09v18a5.5 5.5 0 0 1-5.279 5.496L34 35.5H11a.5.5 0 0 1-.09-.992L11 34.5h23a4.5 4.5 0 0 0 4.495-4.288L38.5 30V12a.5.5 0 0 1 .5-.5zm-6.092-6H33a3.5 3.5 0 0 1 3.495 3.308L36.5 9v20a3.5 3.5 0 0 1-3.308 3.495L33 32.5H9a3.5 3.5 0 0 1-3.495-3.308L5.5 29V15a.5.5 0 0 1 .992-.09L6.5 15v14a2.5 2.5 0 0 0 2.336 2.495L9 31.5h24a2.5 2.5 0 0 0 2.495-2.336L35.5 29V9a2.5 2.5 0 0 0-2.336-2.495L33 6.5h-.092a.5.5 0 0 1-.09-.992l.09-.008H33zM11 27h2a.5.5 0 0 1 .09.992L13 28h-2a.5.5 0 0 1-.09-.992L11 27h2zm6 0h2a.5.5 0 0 1 .09.992L19 28h-2a.5.5 0 0 1-.09-.992L17 27h2zm6 0h2a.5.5 0 0 1 .09.992L25 28h-2a.5.5 0 0 1-.09-.992L23 27h2zm6 0h2a.5.5 0 0 1 .09.992L31 28h-2a.5.5 0 0 1-.09-.992L29 27h2zm-12-3.8h2a.5.5 0 0 1 .09.992L19 24.2h-2a.5.5 0 0 1-.09-.992L17 23.2h2zm-6 0h2a.5.5 0 0 1 .09.992L13 24.2h-2a.5.5 0 0 1-.09-.992L11 23.2h2zm12 0h2a.5.5 0 0 1 .09.992L25 24.2h-2a.5.5 0 0 1-.09-.992L23 23.2h2zm6 0h2a.5.5 0 0 1 .09.992L31 24.2h-2a.5.5 0 0 1-.09-.992L29 23.2h2zm-12-5.7h2a1.5 1.5 0 0 1 1.493 1.356L20.5 19v1a1.5 1.5 0 0 1-1.356 1.493L19 21.5h-2a1.5 1.5 0 0 1-1.493-1.356L15.5 20v-1a1.5 1.5 0 0 1 1.356-1.493L17 17.5h2zm2 1h-2a.5.5 0 0 0-.492.41L16.5 19v1a.5.5 0 0 0 .41.492l.09.008h2a.5.5 0 0 0 .492-.41L19.5 20v-1a.5.5 0 0 0-.5-.5zm-6 .5a.5.5 0 1 1 0 1h-2a.5.5 0 1 1 0-1h2zm16 0h2a.5.5 0 0 1 .09.992L31 20h-2a.5.5 0 0 1-.09-.992L29 19h2zm-6 0h2a.5.5 0 0 1 .09.992L25 20h-2a.5.5 0 0 1-.09-.992L23 19h2zm6-4h2a.5.5 0 0 1 .09.992L31 16h-2a.5.5 0 0 1-.09-.992L29 15h2zm-6 0h2a.5.5 0 0 1 .09.992L25 16h-2a.5.5 0 0 1-.09-.992L23 15h2zm-6 0h2a.5.5 0 0 1 .09.992L19 16h-2a.5.5 0 0 1-.09-.992L17 15h2zM11.082 0a6.444 6.444 0 0 1 1.168.105c2.27.385 5.205 1.834 8.833 4.337a2.5 2.5 0 0 1-.002 4.117l-.406.277c-3.43 2.326-6.225 3.681-8.408 4.056a6.55 6.55 0 0 1-2.353.003c-2.271-.385-5.206-1.834-8.834-4.337a2.5 2.5 0 0 1 .002-4.117l.406-.277C4.918 1.839 7.712.484 9.895.108A6.552 6.552 0 0 1 11.082 0zm0 1a5.501 5.501 0 0 0-.916 10.924c.245.038.48.062.705.072l.21.004a5.501 5.501 0 0 0 .901-10.927c-.24-.036-.47-.06-.69-.069L11.082 1zM23 11h2a.5.5 0 0 1 .09.992L25 12h-2a.5.5 0 0 1-.09-.992L23 11h2zm6 0h2a.5.5 0 0 1 .09.992L31 12h-2a.5.5 0 0 1-.09-.992L29 11h2zM5.803 2.706l-.124.065a40.737 40.737 0 0 0-3.628 2.22l-.403.274a1.5 1.5 0 0 0 0 2.47l.787.533a38.932 38.932 0 0 0 3.369 2.027A6.471 6.471 0 0 1 4.582 6.5a6.47 6.47 0 0 1 1.22-3.794zm10.556-.001l.02.027A6.47 6.47 0 0 1 17.581 6.5a6.47 6.47 0 0 1-1.222 3.794c1.141-.601 2.393-1.362 3.753-2.284l.402-.275a1.5 1.5 0 0 0 0-2.47l-.787-.533a38.93 38.93 0 0 0-3.37-2.027zM11.082 3a3.501 3.501 0 0 1 3.377 2.58l.293 1.077-.999-.499a1.5 1.5 0 0 0-1.343 2.684l.995.499-1.033.412A3.5 3.5 0 1 1 11.082 3zm0 1a2.5 2.5 0 0 0-.165 4.995L11.08 9l-.112-.163a2.495 2.495 0 0 1-.387-1.337c0-1.485.833-2.318 2.5-2.5-.577-.667-1.244-1-2-1zm14.21-.292a.5.5 0 0 1 0 .707 2.24 2.24 0 0 0 0 3.17.5.5 0 1 1-.707.707 3.24 3.24 0 0 1 0-4.584.5.5 0 0 1 .707 0zm3 0a.5.5 0 0 1 0 .707 2.24 2.24 0 0 0 0 3.17.5.5 0 1 1-.707.707 3.24 3.24 0 0 1 0-4.584.5.5 0 0 1 .707 0zm3 0a.5.5 0 0 1 0 .707 2.24 2.24 0 0 0 0 3.17.5.5 0 1 1-.707.707 3.24 3.24 0 0 1 0-4.584.5.5 0 0 1 .707 0z"/>
</svg>
