<svg xmlns="http://www.w3.org/2000/svg" width="40" height="40" viewBox="0 0 40 40">
    <g fill="none" fill-rule="evenodd">
        <rect width="40" height="40" rx="10"/>
        <path fill="white" d="M14.052 11.556l4.981 8.626c.017.028.035.055.054.08l-.023-.032-.03-.049.04.064.036.048.026.031.027.03a1.256 1.256 0 0 0 .152.14l7.928 5.996a10.002 10.002 0 0 1-2.258 1.778c-4.783 2.761-10.9 1.122-13.66-3.66-2.574-4.458-1.326-10.073 2.727-13.052zm9.725 9.527l5.997.569a10.043 10.043 0 0 1-1.19 3.065l-4.807-3.634zm-7.799-10.639c4.606-2.02 10.093-.294 12.667 4.163a9.955 9.955 0 0 1 1.34 4.833l-9.325-.885zm3.086 9.786l.023.033-.012-.018-.01-.015z"/>
    </g>
</svg>
