<svg xmlns="http://www.w3.org/2000/svg" width="40" height="40" viewBox="0 0 40 40">
    <g fill="none" fill-rule="evenodd">
        <rect width="40" height="40" rx="10"/>
        <path fill="white" d="M11 15.533a1 1 0 0 1 .453.108l6.543 3.32a2 2 0 0 1 1.095 1.784v8.7a1 1 0 0 1-1.57.822l-6.662-4.63A2 2 0 0 1 10 23.995v-7.462a1 1 0 0 1 1-1zm18 .01a1 1 0 0 1 1 1v7.452a2 2 0 0 1-.859 1.642l-6.661 4.63a1 1 0 0 1-1.57-.821v-8.64a2 2 0 0 1 1.083-1.778l6.55-3.373a1 1 0 0 1 .457-.111zm-8.501-4.893l7.204 1.855a1 1 0 0 1 .194 1.865l-7.012 3.461a2 2 0 0 1-1.77 0l-7.012-3.461a1 1 0 0 1 .194-1.865L19.5 10.65a2 2 0 0 1 .998 0z"/>
    </g>
</svg>
