<svg xmlns="http://www.w3.org/2000/svg" width="40" height="40" viewBox="0 0 40 40">
    <g fill="none" fill-rule="evenodd">
        <rect width="40" height="40" rx="10"/>
        <path fill="#B8C2E0" fill-rule="nonzero" d="M18.035 23.838a2.41 2.41 0 1 1 0 4.818 2.41 2.41 0 0 1 0-4.818zm7.932 0a2.41 2.41 0 1 1 0 4.818 2.41 2.41 0 0 1 0-4.818zM11.5 9.032l.12.035 1.583.543A3 3 0 0 1 15.1 11.58l.05.187.06.255a2 2 0 0 0 1.785 1.54l.163.007H28.19a2 2 0 0 1 1.985 2.25l-.025.147-1.413 6.971c-.055.27-.163.52-.311.736a3.41 3.41 0 0 0-5.46.867h-1.845a3.41 3.41 0 0 0-5.533-.791 1.959 1.959 0 0 1-.312-.593l-.046-.166-2.173-9.408a2.886 2.886 0 0 0-1.69-2.01l-.184-.07-.358-.123-.116-.046a1.223 1.223 0 0 1 .79-2.302z"/>
    </g>
</svg>
